<?xml version="1.0" standalone="no"?>
<!DOCTYPE svg PUBLIC "-//W3C//DTD SVG 20010904//EN"
 "http://www.w3.org/TR/2001/REC-SVG-20010904/DTD/svg10.dtd">
<svg version="1.0" xmlns="http://www.w3.org/2000/svg"
 width="2800.000000pt" height="2800.000000pt" viewBox="0 0 2800.000000 2800.000000"
 preserveAspectRatio="xMidYMid meet">
<metadata>
Created by potrace 1.14, written by Peter Selinger 2001-2017
</metadata>
<g transform="translate(0.000000,2800.000000) scale(0.100000,-0.100000)"
fill="#000000" stroke="none">
<path d="M8189 22496 c-2 -2 -65 -6 -139 -10 -74 -3 -157 -8 -185 -10 -167
-12 -232 -18 -245 -21 -8 -2 -46 -7 -85 -10 -72 -7 -87 -9 -165 -20 -80 -12
-94 -14 -140 -20 -25 -3 -81 -12 -125 -20 -44 -8 -96 -16 -115 -19 -19 -3 -46
-8 -60 -11 -110 -22 -179 -36 -200 -41 -14 -3 -38 -8 -55 -10 -71 -13 -478
-119 -599 -156 -72 -22 -138 -41 -146 -43 -61 -13 -463 -160 -669 -245 -139
-57 -144 -59 -295 -129 -59 -28 -114 -51 -120 -51 -7 0 -16 -4 -21 -9 -6 -5
-71 -40 -145 -77 -74 -37 -175 -89 -225 -117 -49 -27 -115 -63 -145 -80 -30
-16 -90 -52 -133 -79 -43 -26 -80 -48 -82 -48 -7 0 -220 -136 -345 -221 -184
-125 -204 -139 -335 -238 -403 -303 -734 -598 -1095 -977 -231 -242 -522 -591
-675 -809 -27 -38 -52 -72 -56 -75 -3 -3 -67 -95 -141 -205 -227 -337 -422
-675 -593 -1029 -92 -191 -100 -208 -150 -321 -33 -75 -142 -344 -166 -410
-82 -227 -104 -290 -126 -360 -13 -44 -29 -93 -35 -110 -5 -16 -13 -43 -18
-60 -4 -16 -22 -77 -38 -135 -28 -98 -70 -256 -77 -290 -2 -8 -8 -35 -15 -60
-7 -25 -14 -54 -16 -65 -2 -11 -7 -33 -11 -50 -4 -16 -7 -32 -8 -35 -7 -35
-16 -79 -19 -95 -2 -11 -11 -54 -19 -95 -9 -41 -19 -95 -22 -120 -4 -24 -8
-47 -10 -50 -2 -3 -8 -42 -14 -86 -7 -44 -14 -91 -16 -104 -3 -13 -7 -42 -10
-65 -4 -22 -8 -51 -10 -65 -2 -14 -6 -50 -10 -80 -3 -30 -8 -71 -10 -90 -7
-51 -19 -180 -30 -315 -27 -323 -27 -994 0 -1305 1 -19 6 -72 10 -116 3 -45 8
-95 10 -110 2 -16 6 -58 10 -94 4 -36 8 -74 10 -85 1 -11 6 -42 9 -70 8 -57
45 -297 52 -335 2 -14 7 -41 10 -60 3 -19 7 -42 9 -50 2 -8 7 -31 10 -50 15
-90 51 -252 96 -430 27 -107 51 -204 54 -215 20 -86 148 -485 210 -654 228
-627 560 -1275 943 -1841 92 -136 342 -477 375 -512 7 -7 25 -31 41 -53 17
-22 33 -42 36 -45 4 -3 29 -32 56 -65 26 -33 53 -65 58 -71 11 -11 106 -120
139 -158 163 -190 572 -592 781 -767 16 -13 34 -29 40 -34 20 -19 202 -169
237 -196 19 -15 68 -53 109 -86 212 -166 568 -407 860 -582 19 -11 42 -24 50
-28 8 -4 53 -29 100 -56 467 -271 1181 -573 1750 -741 306 -90 811 -204 1025
-232 28 -3 53 -8 56 -10 5 -2 146 -22 354 -49 50 -6 204 -21 325 -31 25 -2
110 -7 190 -11 188 -10 11741 -10 11925 0 77 4 160 10 185 12 25 2 77 6 115 9
69 6 146 14 195 21 14 2 54 7 90 10 36 3 72 8 80 10 8 2 38 7 65 10 28 3 106
14 175 26 155 25 170 28 195 33 11 2 68 13 126 25 277 53 663 156 967 257 521
172 932 351 1447 629 334 181 810 496 1130 749 126 100 123 97 169 136 23 19
67 55 96 80 287 239 756 706 950 944 8 10 22 26 30 35 8 9 62 75 120 146 58
72 109 135 115 141 13 16 216 291 235 320 8 12 51 76 96 141 148 216 312 486
436 718 304 565 529 1124 704 1745 24 85 46 164 48 175 2 11 16 65 30 120 14
55 28 115 31 132 3 18 12 61 20 95 8 35 16 75 19 90 2 15 11 63 20 105 8 43
17 92 20 108 2 17 9 59 15 95 6 36 13 83 16 105 3 22 7 49 10 60 2 11 7 49 11
85 3 36 8 68 10 71 2 3 6 40 9 83 4 43 8 85 10 95 2 9 6 57 10 107 4 49 9 97
11 107 9 52 18 372 19 662 0 379 -9 557 -41 880 -6 67 -33 284 -38 315 -3 14
-7 43 -10 65 -3 22 -7 50 -10 62 -2 11 -8 43 -12 70 -3 26 -8 57 -10 68 -2 11
-9 47 -14 80 -37 207 -142 648 -206 865 -23 76 -127 392 -174 525 -131 376
-417 978 -653 1375 -147 249 -320 509 -490 739 -54 74 -103 139 -108 145 -5 6
-41 52 -80 101 -249 314 -566 656 -878 945 -682 632 -1465 1149 -2316 1527
-241 106 -209 93 -360 151 -306 118 -579 209 -830 277 -106 29 -358 91 -397
99 -12 2 -54 11 -93 20 -38 9 -81 18 -95 20 -14 3 -61 12 -105 20 -68 13 -342
58 -440 71 -16 2 -93 11 -170 20 -77 9 -158 18 -180 20 -22 3 -80 7 -130 10
-49 3 -115 9 -145 12 -58 7 -11813 16 -11821 9z m11771 -1508 c25 -3 88 -9
140 -13 52 -4 101 -8 110 -10 8 -2 44 -6 80 -10 36 -4 74 -8 85 -10 11 -1 45
-5 75 -9 110 -14 350 -56 521 -91 290 -60 795 -209 1024 -303 28 -11 113 -46
190 -77 373 -152 785 -370 1130 -596 33 -22 73 -47 88 -57 16 -9 50 -33 77
-52 26 -19 58 -42 70 -50 48 -33 330 -248 380 -290 283 -238 470 -413 675
-631 94 -100 211 -231 268 -303 18 -21 48 -57 67 -80 19 -23 76 -96 125 -162
50 -65 92 -121 95 -124 28 -28 302 -444 364 -553 13 -23 50 -87 81 -142 238
-414 483 -997 615 -1463 17 -59 37 -129 45 -157 13 -43 51 -198 60 -245 2 -8
14 -69 28 -135 24 -114 60 -313 72 -400 3 -22 7 -53 10 -70 3 -16 7 -52 10
-80 3 -27 7 -63 10 -80 44 -291 55 -1036 19 -1395 -2 -25 -6 -67 -9 -95 -9
-97 -16 -161 -30 -255 -8 -52 -17 -117 -20 -145 -4 -27 -8 -57 -10 -65 -3 -8
-7 -33 -11 -55 -5 -35 -79 -394 -89 -435 -98 -388 -250 -846 -360 -1085 -7
-16 -32 -73 -55 -125 -40 -91 -196 -408 -237 -480 -11 -19 -35 -62 -53 -95
-214 -387 -595 -919 -889 -1240 -227 -247 -509 -521 -681 -661 -19 -16 -37
-31 -40 -35 -3 -3 -52 -43 -110 -88 -58 -46 -114 -90 -125 -100 -140 -115
-555 -390 -805 -533 -104 -59 -134 -75 -310 -164 -255 -128 -407 -195 -675
-297 -315 -121 -764 -249 -1095 -313 -14 -3 -32 -7 -40 -9 -8 -2 -37 -7 -65
-11 -27 -3 -52 -8 -55 -9 -3 -2 -26 -6 -50 -9 -25 -4 -56 -9 -70 -11 -42 -8
-81 -13 -170 -25 -144 -18 -153 -19 -215 -25 -33 -3 -85 -7 -115 -10 -30 -3
-111 -9 -180 -13 -166 -9 -11682 -9 -11830 1 -172 11 -288 21 -360 31 -25 3
-65 8 -90 11 -25 2 -62 7 -82 10 -21 3 -55 7 -75 10 -34 5 -218 36 -298 50
-166 30 -509 115 -710 176 -243 74 -549 187 -784 291 -141 62 -490 234 -548
271 -24 15 -45 27 -48 27 -7 0 -267 155 -350 209 -38 25 -77 50 -86 56 -54 35
-85 55 -94 62 -6 4 -33 24 -60 43 -235 163 -497 373 -723 579 -88 80 -386 379
-443 444 -19 22 -47 53 -64 71 -16 18 -55 61 -85 97 -30 35 -57 66 -60 69 -3
3 -17 21 -32 42 -15 20 -34 42 -41 50 -7 7 -63 78 -123 158 -537 707 -931
1501 -1169 2355 -26 91 -48 173 -50 183 -18 77 -95 445 -100 477 -3 22 -12 78
-19 125 -17 99 -27 171 -32 220 -2 19 -5 53 -8 75 -31 245 -41 443 -41 795 0
259 7 463 20 595 2 22 7 69 10 105 15 158 42 357 71 515 15 77 28 151 30 165
7 41 55 254 59 260 2 3 6 21 9 40 8 53 111 406 162 560 48 142 155 419 198
514 14 31 26 59 26 62 0 8 78 171 164 344 73 146 183 345 251 455 20 33 46 74
56 91 16 26 84 131 176 269 14 22 29 42 32 45 4 3 15 18 25 35 11 16 23 34 28
40 4 5 56 73 114 150 209 274 410 502 660 747 184 179 169 165 299 278 156
136 136 119 310 258 6 4 37 28 70 52 33 25 64 49 70 53 35 28 201 145 255 180
36 23 67 44 70 47 8 9 297 185 380 232 25 14 63 36 85 48 70 40 469 237 495
245 14 4 30 11 35 15 15 12 282 121 414 169 217 80 647 211 775 237 12 2 30 6
41 9 135 32 488 99 585 111 19 2 49 6 65 9 17 2 50 7 75 10 25 3 63 7 85 10
22 3 74 7 115 11 41 3 86 7 99 9 14 3 86 7 160 11 75 4 138 8 140 10 7 6
11691 -2 11741 -8z"/>
<path d="M8278 17995 c-2 -1 -46 -5 -98 -9 -82 -5 -145 -12 -275 -31 -16 -2
-48 -7 -70 -10 -125 -17 -406 -87 -565 -139 -393 -129 -705 -284 -1070 -533
-34 -23 -179 -133 -209 -158 -187 -155 -361 -322 -489 -470 -48 -55 -89 -102
-93 -105 -30 -27 -207 -274 -302 -420 -252 -391 -464 -944 -547 -1428 -11 -65
-12 -71 -30 -207 -32 -244 -35 -729 -6 -930 3 -16 8 -55 11 -85 12 -94 14
-108 45 -264 17 -83 40 -185 51 -226 29 -107 60 -212 69 -235 4 -11 22 -60 40
-110 151 -420 374 -811 671 -1176 138 -169 402 -430 579 -573 25 -20 51 -41
58 -47 17 -15 252 -180 277 -196 212 -132 253 -156 425 -239 438 -214 911
-345 1410 -390 169 -16 725 -8 782 10 7 3 40 7 73 11 433 42 989 224 1419 464
60 34 111 61 113 61 2 0 16 8 31 19 15 10 77 51 137 91 225 149 382 277 600
492 77 76 163 166 192 201 28 34 60 71 70 82 11 11 58 72 106 135 48 63 91
120 95 125 28 36 130 199 188 300 218 377 367 773 460 1220 3 15 33 205 39
248 3 20 7 52 9 70 27 198 28 717 2 902 -13 90 -19 132 -21 150 -5 50 -17 123
-25 155 -5 19 -12 51 -15 70 -11 69 -75 307 -114 425 -223 686 -639 1310
-1186 1779 -161 139 -347 279 -467 351 -612 370 -1095 535 -1793 611 -60 6
-571 15 -577 9z m497 -1508 c11 -3 43 -8 70 -12 28 -4 61 -8 75 -10 14 -2 69
-13 123 -25 451 -98 871 -328 1208 -660 284 -281 484 -597 616 -975 26 -75 79
-271 86 -320 3 -16 8 -46 11 -65 3 -19 8 -48 11 -65 14 -79 20 -197 20 -370
-1 -169 -4 -232 -21 -340 -2 -16 -6 -43 -9 -60 -15 -104 -61 -281 -107 -415
-70 -202 -246 -533 -352 -661 -11 -14 -32 -41 -46 -59 -78 -106 -274 -302
-405 -406 -179 -142 -413 -280 -600 -354 -44 -17 -89 -36 -100 -41 -86 -38
-386 -111 -511 -124 -32 -4 -63 -9 -68 -12 -15 -10 -426 -12 -506 -3 -123 14
-164 20 -190 25 -108 21 -144 29 -210 46 -41 11 -82 22 -90 24 -28 7 -154 52
-225 81 -175 70 -430 214 -546 308 -14 12 -41 32 -59 46 -99 73 -302 274 -399
395 -128 159 -287 425 -363 610 -132 318 -190 638 -182 1005 3 190 7 245 20
310 2 14 7 43 10 65 3 22 15 78 25 125 107 464 331 871 669 1210 151 152 200
192 380 314 139 93 288 175 425 231 50 20 99 41 110 45 46 19 231 74 285 85
154 31 240 45 310 51 47 3 87 8 89 10 5 5 422 -3 446 -9z"/>
<path d="M19258 17995 c-1 -1 -41 -6 -88 -9 -47 -4 -96 -8 -110 -10 -14 -3
-52 -8 -85 -11 -85 -10 -90 -11 -195 -30 -102 -18 -321 -71 -435 -105 -38 -12
-74 -22 -80 -23 -5 -2 -23 -8 -40 -14 -16 -6 -64 -23 -105 -38 -41 -15 -88
-33 -105 -40 -16 -7 -84 -37 -150 -66 -204 -89 -442 -222 -617 -344 -51 -35
-101 -70 -112 -77 -23 -17 -80 -60 -130 -101 -579 -472 -995 -1044 -1252
-1722 -4 -11 -8 -22 -9 -25 -1 -3 -5 -12 -8 -20 -32 -73 -119 -382 -150 -530
-21 -94 -45 -238 -53 -310 -3 -30 -7 -66 -10 -80 -12 -73 -19 -229 -19 -430 0
-206 10 -443 19 -459 2 -3 7 -35 10 -71 4 -36 9 -74 11 -85 2 -11 7 -37 10
-58 14 -103 63 -315 105 -457 17 -58 32 -109 34 -115 2 -5 5 -17 8 -25 3 -8
14 -37 23 -65 93 -267 212 -512 400 -823 118 -196 329 -457 540 -668 168 -168
345 -324 461 -404 453 -315 804 -488 1269 -625 104 -31 112 -33 145 -39 14 -2
54 -11 90 -20 36 -8 79 -17 95 -20 17 -3 41 -8 55 -11 36 -7 69 -13 115 -19
22 -3 74 -10 115 -16 221 -31 746 -34 930 -6 14 2 50 7 80 11 82 9 120 15 175
25 28 5 64 12 80 15 26 4 210 47 255 59 86 23 123 34 238 72 226 75 544 217
702 312 19 12 49 29 65 38 102 56 437 290 497 346 7 7 45 40 83 72 111 94 268
251 379 376 425 482 717 1029 876 1644 40 155 69 284 75 340 2 17 8 65 15 106
6 41 13 89 15 105 26 183 27 735 1 895 -2 14 -7 50 -11 80 -7 66 -15 116 -21
150 -3 14 -11 61 -20 105 -8 44 -26 125 -39 180 -14 55 -28 110 -30 122 -12
51 -99 305 -146 422 -45 113 -158 349 -220 458 -69 121 -98 167 -162 263 -153
228 -289 393 -497 600 -170 171 -178 178 -330 301 -176 142 -346 257 -551 371
-101 57 -343 178 -355 178 -2 0 -23 9 -47 19 -250 112 -690 235 -952 266 -27
4 -57 8 -65 10 -8 2 -51 7 -95 11 -44 3 -89 9 -100 11 -22 6 -571 13 -577 8z
m518 -1508 c12 -3 45 -8 74 -12 29 -4 62 -9 74 -11 12 -2 35 -7 53 -10 27 -4
191 -44 243 -58 182 -51 447 -175 630 -293 219 -142 466 -366 612 -554 260
-336 453 -771 504 -1139 3 -19 11 -78 18 -130 13 -91 14 -475 2 -560 -20 -143
-48 -285 -72 -370 -50 -173 -142 -417 -171 -451 -7 -8 -13 -19 -13 -23 0 -10
-111 -209 -120 -216 -4 -3 -15 -18 -24 -35 -17 -32 -30 -50 -111 -155 -81
-105 -85 -110 -200 -225 -119 -119 -146 -143 -245 -221 -317 -248 -735 -430
-1120 -489 -58 -9 -116 -19 -130 -21 -45 -10 -453 -12 -515 -4 -33 5 -82 11
-110 15 -88 12 -99 14 -175 30 -246 52 -510 154 -740 286 -65 37 -223 143
-266 179 -17 14 -53 43 -80 65 -62 50 -266 255 -319 320 -122 151 -230 315
-309 473 -112 223 -206 513 -232 717 -3 22 -7 46 -9 53 -26 78 -26 603 0 702
2 8 6 38 10 65 13 111 111 463 136 490 5 5 9 15 9 22 0 14 52 129 103 228 103
201 264 421 432 590 66 67 136 134 155 151 399 336 895 548 1385 590 39 4 72
8 74 10 6 5 422 -4 447 -9z"/>
</g>
</svg>
